<svg width="73" height="31" viewBox="0 0 73 31" fill="none" xmlns="http://www.w3.org/2000/svg">
<path d="M11.2812 4.64062L5.09375 23.5H0.109375L8.5625 0.75H11.7344L11.2812 4.64062ZM16.4219 23.5L10.2188 4.64062L9.71875 0.75H12.9219L21.4219 23.5H16.4219ZM16.1406 15.0312V18.7031H4.125V15.0312H16.1406ZM27.25 9.84375V30H22.75V6.59375H26.9219L27.25 9.84375ZM37.9531 14.8594V15.1875C37.9531 16.4167 37.8073 17.5573 37.5156 18.6094C37.2344 19.6615 36.8177 20.5781 36.2656 21.3594C35.7135 22.1302 35.026 22.7344 34.2031 23.1719C33.3906 23.599 32.4531 23.8125 31.3906 23.8125C30.3594 23.8125 29.4635 23.6042 28.7031 23.1875C27.9427 22.7708 27.3021 22.1875 26.7812 21.4375C26.2708 20.6771 25.8594 19.7969 25.5469 18.7969C25.2344 17.7969 24.9948 16.724 24.8281 15.5781V14.7188C24.9948 13.4896 25.2344 12.3646 25.5469 11.3438C25.8594 10.3125 26.2708 9.42188 26.7812 8.67188C27.3021 7.91146 27.9375 7.32292 28.6875 6.90625C29.4479 6.48958 30.3385 6.28125 31.3594 6.28125C32.4323 6.28125 33.375 6.48438 34.1875 6.89062C35.0104 7.29688 35.6979 7.88021 36.25 8.64062C36.8125 9.40104 37.2344 10.3073 37.5156 11.3594C37.8073 12.4115 37.9531 13.5781 37.9531 14.8594ZM33.4375 15.1875V14.8594C33.4375 14.1406 33.375 13.4792 33.25 12.875C33.1354 12.2604 32.9479 11.724 32.6875 11.2656C32.4375 10.8073 32.1042 10.4531 31.6875 10.2031C31.2812 9.94271 30.7865 9.8125 30.2031 9.8125C29.5885 9.8125 29.0625 9.91146 28.625 10.1094C28.1979 10.3073 27.849 10.5938 27.5781 10.9688C27.3073 11.3438 27.1042 11.7917 26.9688 12.3125C26.8333 12.8333 26.75 13.4219 26.7188 14.0781V16.25C26.7708 17.0208 26.9167 17.7135 27.1562 18.3281C27.3958 18.9323 27.7656 19.4115 28.2656 19.7656C28.7656 20.1198 29.4219 20.2969 30.2344 20.2969C30.8281 20.2969 31.3281 20.1667 31.7344 19.9062C32.1406 19.6354 32.4688 19.2656 32.7188 18.7969C32.9792 18.3281 33.1615 17.7865 33.2656 17.1719C33.3802 16.5573 33.4375 15.8958 33.4375 15.1875ZM45.25 9.84375V30H40.75V6.59375H44.9219L45.25 9.84375ZM55.9531 14.8594V15.1875C55.9531 16.4167 55.8073 17.5573 55.5156 18.6094C55.2344 19.6615 54.8177 20.5781 54.2656 21.3594C53.7135 22.1302 53.026 22.7344 52.2031 23.1719C51.3906 23.599 50.4531 23.8125 49.3906 23.8125C48.3594 23.8125 47.4635 23.6042 46.7031 23.1875C45.9427 22.7708 45.3021 22.1875 44.7812 21.4375C44.2708 20.6771 43.8594 19.7969 43.5469 18.7969C43.2344 17.7969 42.9948 16.724 42.8281 15.5781V14.7188C42.9948 13.4896 43.2344 12.3646 43.5469 11.3438C43.8594 10.3125 44.2708 9.42188 44.7812 8.67188C45.3021 7.91146 45.9375 7.32292 46.6875 6.90625C47.4479 6.48958 48.3385 6.28125 49.3594 6.28125C50.4323 6.28125 51.375 6.48438 52.1875 6.89062C53.0104 7.29688 53.6979 7.88021 54.25 8.64062C54.8125 9.40104 55.2344 10.3073 55.5156 11.3594C55.8073 12.4115 55.9531 13.5781 55.9531 14.8594ZM51.4375 15.1875V14.8594C51.4375 14.1406 51.375 13.4792 51.25 12.875C51.1354 12.2604 50.9479 11.724 50.6875 11.2656C50.4375 10.8073 50.1042 10.4531 49.6875 10.2031C49.2812 9.94271 48.7865 9.8125 48.2031 9.8125C47.5885 9.8125 47.0625 9.91146 46.625 10.1094C46.1979 10.3073 45.849 10.5938 45.5781 10.9688C45.3073 11.3438 45.1042 11.7917 44.9688 12.3125C44.8333 12.8333 44.75 13.4219 44.7188 14.0781V16.25C44.7708 17.0208 44.9167 17.7135 45.1562 18.3281C45.3958 18.9323 45.7656 19.4115 46.2656 19.7656C46.7656 20.1198 47.4219 20.2969 48.2344 20.2969C48.8281 20.2969 49.3281 20.1667 49.7344 19.9062C50.1406 19.6354 50.4688 19.2656 50.7188 18.7969C50.9792 18.3281 51.1615 17.7865 51.2656 17.1719C51.3802 16.5573 51.4375 15.8958 51.4375 15.1875ZM63.5781 21.5938L68.0625 6.59375H72.8906L66.0938 26.0469C65.9479 26.474 65.75 26.9323 65.5 27.4219C65.2604 27.9115 64.9323 28.375 64.5156 28.8125C64.1094 29.2604 63.5938 29.625 62.9688 29.9062C62.3542 30.1875 61.599 30.3281 60.7031 30.3281C60.276 30.3281 59.9271 30.3021 59.6562 30.25C59.3854 30.1979 59.0625 30.125 58.6875 30.0312V26.7344C58.8021 26.7344 58.9219 26.7344 59.0469 26.7344C59.1719 26.7448 59.2917 26.75 59.4062 26.75C60 26.75 60.4844 26.6823 60.8594 26.5469C61.2344 26.4115 61.5365 26.2031 61.7656 25.9219C61.9948 25.651 62.1771 25.2969 62.3125 24.8594L63.5781 21.5938ZM61.7031 6.59375L65.375 18.8438L66.0156 23.6094L62.9531 23.9375L56.875 6.59375H61.7031Z" fill="#2563EB"/>
</svg>
