<svg width="24" height="25" viewBox="0 0 24 25" fill="none" xmlns="http://www.w3.org/2000/svg">
<path d="M6.23445 21.5594C5.94665 21.5589 5.66394 21.4834 5.41414 21.3405C4.85164 21.0217 4.50195 20.403 4.50195 19.7313V6.13752C4.50195 5.46393 4.85164 4.84705 5.41414 4.5283C5.66989 4.38132 5.96043 4.30573 6.25539 4.30944C6.55034 4.31315 6.83889 4.39602 7.09086 4.54939L18.7088 11.5038C18.951 11.6556 19.1506 11.8664 19.2889 12.1165C19.4273 12.3666 19.4999 12.6477 19.4999 12.9335C19.4999 13.2192 19.4273 13.5004 19.2889 13.7504C19.1506 14.0005 18.951 14.2113 18.7088 14.3631L7.08898 21.3194C6.83112 21.4753 6.53577 21.5582 6.23445 21.5594Z" fill="#2563EB"/>
</svg>
